<svg width="256" height="256" viewBox="0 0 256 256" fill="none" xmlns="http://www.w3.org/2000/svg">
<g clip-path="url(#clip0_1_8)">
<rect width="256" height="256" rx="50" fill="#00C8B3"/>
<path d="M134.6 179.85C134.9 178.65 135.1 177.35 135.2 175.95C135.4 174.45 135.5 172.95 135.5 171.45C135.5 170.45 135.5 168.25 135.5 164.85C135.5 161.45 135.5 157.3 135.5 152.4C135.5 147.4 135.5 142 135.5 136.2C135.5 130.4 135.5 124.6 135.5 118.8C135.5 112.9 135.5 107.4 135.5 102.3C135.5 97.2 135.5 92.8 135.5 89.1C135.5 85.4 135.5 82.9 135.5 81.6C135.5 78.7 135.4 76.3 135.2 74.4C135 72.4 134.85 71.1 134.75 70.5H148.55C148.55 71.1 148.45 72.4 148.25 74.4C148.05 76.4 147.95 78.8 147.95 81.6C147.95 83 147.95 85.5 147.95 89.1C147.95 92.6 147.95 96.9 147.95 102C147.95 107 147.95 112.4 147.95 118.2C147.95 123.9 147.95 129.55 147.95 135.15C147.95 140.75 147.95 145.95 147.95 150.75C147.95 155.45 147.95 159.35 147.95 162.45C147.95 165.55 147.95 167.45 147.95 168.15C152.65 165.95 157.65 163.05 162.95 159.45C168.25 155.85 173.4 151.65 178.4 146.85C183.5 142.05 187.95 136.85 191.75 131.25L198.8 141.45C194.5 147.25 189.45 152.8 183.65 158.1C177.95 163.4 172 168.15 165.8 172.35C159.6 176.55 153.55 180.1 147.65 183C146.45 183.7 145.4 184.35 144.5 184.95C143.7 185.55 143.05 186.05 142.55 186.45L134.6 179.85ZM65.9 179.1C72.2 174.6 77.55 169.15 81.95 162.75C86.35 156.35 89.7 149.5 92 142.2C93.1 138.8 93.95 134.55 94.55 129.45C95.15 124.35 95.6 118.95 95.9 113.25C96.2 107.45 96.35 101.85 96.35 96.45C96.45 90.95 96.5 86.1 96.5 81.9C96.5 79.7 96.4 77.75 96.2 76.05C96 74.25 95.75 72.55 95.45 70.95H109.25C109.15 71.55 109.05 72.45 108.95 73.65C108.85 74.75 108.75 76 108.65 77.4C108.55 78.8 108.5 80.25 108.5 81.75C108.5 85.95 108.45 90.9 108.35 96.6C108.25 102.2 108 108.1 107.6 114.3C107.3 120.4 106.85 126.2 106.25 131.7C105.75 137.2 104.95 141.8 103.85 145.5C101.65 153.5 98.2 161.05 93.5 168.15C88.9 175.25 83.45 181.45 77.15 186.75L65.9 179.1Z" fill="white"/>
</g>
<defs>
<clipPath id="clip0_1_8">
<rect width="256" height="256" fill="white"/>
</clipPath>
</defs>
</svg>
